# xmcd
#
# Track frame offsets: 
#        150
#        23238
#        43660
#        65257
#        84218
#        104385
#        123019
#        142202
#        161538
#        183848
#        200886
#
# Disc length: 2970 seconds
#
# Revision: 2
# Processed by: cddbd v1.5.2PL0 Copyright (c) Steve Scherf et al.
# Submitted via: ExactAudioCopy v1.0b3
#
DISCID=910b980b
DTITLE=阿桑 - 受了点伤
DYEAR=2003
DGENRE=Pop
TTITLE0=叶子（秋天版）
TTITLE1=让我爱
TTITLE2=受了点伤
TTITLE3=我不想
TTITLE4=如果爱你只有这一次
TTITLE5=你的世界
TTITLE6=温柔的慈悲
TTITLE7=任凭摆布
TTITLE8=如何让你不离开
TTITLE9=看透
TTITLE10=叶子（蔷薇之恋原声带版）
EXTD=
EXTT0=
EXTT1=
EXTT2=
EXTT3=
EXTT4=
EXTT5=
EXTT6=
EXTT7=
EXTT8=
EXTT9=
EXTT10=
PLAYORDER=
